<mxfile host="app.diagrams.net" modified="2021-10-08T17:23:28.803Z" agent="5.0 (Windows NT 10.0; Win64; x64) AppleWebKit/537.36 (KHTML, like Gecko) Chrome/94.0.4606.71 Safari/537.36" etag="VymSrVXBU2_gh6S2Vq-5" version="15.4.3" type="github">
  <diagram id="prtHgNgQTEPvFCAcTncT" name="Page-1">
    <mxGraphModel dx="834" dy="432" grid="1" gridSize="10" guides="1" tooltips="1" connect="1" arrows="1" fold="1" page="1" pageScale="1" pageWidth="827" pageHeight="1169" math="0" shadow="0">
      <root>
        <mxCell id="0" />
        <mxCell id="1" parent="0" />
        <mxCell id="SEZTkzzxNUXcuObo3p4H-1" style="edgeStyle=orthogonalEdgeStyle;rounded=0;orthogonalLoop=1;jettySize=auto;html=1;exitX=1;exitY=0.5;exitDx=0;exitDy=0;dashed=1;endArrow=none;endFill=0;" edge="1" parent="1" source="dNxyNK7c78bLwvsdeMH5-12">
          <mxGeometry relative="1" as="geometry">
            <mxPoint x="599.9999999999998" y="374.8965517241379" as="targetPoint" />
          </mxGeometry>
        </mxCell>
        <mxCell id="SEZTkzzxNUXcuObo3p4H-4" style="edgeStyle=orthogonalEdgeStyle;rounded=0;orthogonalLoop=1;jettySize=auto;html=1;exitX=0;exitY=0.5;exitDx=0;exitDy=0;dashed=1;endArrow=none;endFill=0;" edge="1" parent="1" source="dNxyNK7c78bLwvsdeMH5-12" target="SEZTkzzxNUXcuObo3p4H-6">
          <mxGeometry relative="1" as="geometry">
            <mxPoint x="230" y="374.8965517241379" as="targetPoint" />
          </mxGeometry>
        </mxCell>
        <UserObject label="" name="Tessa Miller" position="CFO" location="Office 1" email="me@example.com" placeholders="1" link="https://www.draw.io" id="dNxyNK7c78bLwvsdeMH5-12">
          <mxCell style="label;image=https://cdn3.iconfinder.com/data/icons/user-avatars-1/512/users-3-128.png;whiteSpace=wrap;html=1;rounded=0;glass=0;treeMoving=1;treeFolding=1;" parent="1" vertex="1">
            <mxGeometry x="320" y="340" width="180" height="70" as="geometry" />
          </mxCell>
        </UserObject>
        <mxCell id="dNxyNK7c78bLwvsdeMH5-13" value="" style="endArrow=blockThin;endFill=1;fontSize=11;edgeStyle=elbowEdgeStyle;elbow=vertical;rounded=0;" parent="1" source="dNxyNK7c78bLwvsdeMH5-12" target="dNxyNK7c78bLwvsdeMH5-14" edge="1">
          <mxGeometry relative="1" as="geometry" />
        </mxCell>
        <UserObject label="" name="Edward Morrison" position="Brand Manager" location="Office 2" email="me@example.com" placeholders="1" link="https://www.draw.io" id="dNxyNK7c78bLwvsdeMH5-14">
          <mxCell style="label;image=https://cdn3.iconfinder.com/data/icons/user-avatars-1/512/users-10-3-128.png;whiteSpace=wrap;html=1;rounded=0;glass=0;treeFolding=1;treeMoving=1;" parent="1" vertex="1">
            <mxGeometry x="20" y="470" width="180" height="80" as="geometry" />
          </mxCell>
        </UserObject>
        <mxCell id="dNxyNK7c78bLwvsdeMH5-15" value="" style="endArrow=blockThin;endFill=1;fontSize=11;edgeStyle=elbowEdgeStyle;elbow=vertical;rounded=0;" parent="1" source="dNxyNK7c78bLwvsdeMH5-12" target="dNxyNK7c78bLwvsdeMH5-16" edge="1">
          <mxGeometry relative="1" as="geometry" />
        </mxCell>
        <UserObject label="" name="Evan Valet" position="HR Director" location="Office 4" email="me@example.com" placeholders="1" link="https://www.draw.io" id="dNxyNK7c78bLwvsdeMH5-16">
          <mxCell style="label;image=https://cdn3.iconfinder.com/data/icons/user-avatars-1/512/users-9-2-128.png;whiteSpace=wrap;html=1;rounded=0;glass=0;treeFolding=1;treeMoving=1;" parent="1" vertex="1">
            <mxGeometry x="420" y="470" width="180" height="80" as="geometry" />
          </mxCell>
        </UserObject>
        <mxCell id="dNxyNK7c78bLwvsdeMH5-17" value="" style="endArrow=blockThin;endFill=1;fontSize=11;edgeStyle=elbowEdgeStyle;elbow=vertical;rounded=0;" parent="1" source="dNxyNK7c78bLwvsdeMH5-12" target="dNxyNK7c78bLwvsdeMH5-18" edge="1">
          <mxGeometry relative="1" as="geometry" />
        </mxCell>
        <UserObject label="" name="Alison Donovan" position="System Admin" location="Office 3" email="me@example.com" placeholders="1" link="https://www.draw.io" id="dNxyNK7c78bLwvsdeMH5-18">
          <mxCell style="label;image=https://cdn3.iconfinder.com/data/icons/user-avatars-1/512/users-2-128.png;whiteSpace=wrap;html=1;rounded=0;glass=0;" parent="1" vertex="1">
            <mxGeometry x="620" y="470" width="170" height="80" as="geometry" />
          </mxCell>
        </UserObject>
        <mxCell id="SEZTkzzxNUXcuObo3p4H-2" value="Produsen sepatu" style="rounded=0;whiteSpace=wrap;html=1;" vertex="1" parent="1">
          <mxGeometry x="580" y="345" width="120" height="60" as="geometry" />
        </mxCell>
        <mxCell id="SEZTkzzxNUXcuObo3p4H-6" value="Kurir" style="rounded=0;whiteSpace=wrap;html=1;" vertex="1" parent="1">
          <mxGeometry x="110" y="345" width="120" height="60" as="geometry" />
        </mxCell>
        <mxCell id="SEZTkzzxNUXcuObo3p4H-7" value="" style="whiteSpace=wrap;html=1;aspect=fixed;strokeColor=none;" vertex="1" parent="1">
          <mxGeometry x="80" y="492" width="40" height="40" as="geometry" />
        </mxCell>
        <mxCell id="SEZTkzzxNUXcuObo3p4H-14" value="" style="whiteSpace=wrap;html=1;aspect=fixed;strokeColor=none;" vertex="1" parent="1">
          <mxGeometry x="330" y="355" width="50" height="50" as="geometry" />
        </mxCell>
        <mxCell id="SEZTkzzxNUXcuObo3p4H-8" value="" style="whiteSpace=wrap;html=1;aspect=fixed;strokeColor=none;" vertex="1" parent="1">
          <mxGeometry x="630" y="492" width="40" height="40" as="geometry" />
        </mxCell>
        <mxCell id="SEZTkzzxNUXcuObo3p4H-12" value="Dhiya Risalah Ghaida&lt;br&gt;CEO" style="rounded=0;whiteSpace=wrap;html=1;fillColor=none;strokeColor=none;" vertex="1" parent="1">
          <mxGeometry x="325" y="345" width="170" height="60" as="geometry" />
        </mxCell>
        <mxCell id="SEZTkzzxNUXcuObo3p4H-13" value="" style="whiteSpace=wrap;html=1;aspect=fixed;strokeColor=none;" vertex="1" parent="1">
          <mxGeometry x="430" y="490" width="50" height="50" as="geometry" />
        </mxCell>
        <mxCell id="SEZTkzzxNUXcuObo3p4H-15" value="Dhiya Risalah Ghaida&lt;br&gt;CMO" style="rounded=0;whiteSpace=wrap;html=1;fillColor=none;strokeColor=none;" vertex="1" parent="1">
          <mxGeometry x="425" y="482" width="170" height="60" as="geometry" />
        </mxCell>
        <mxCell id="SEZTkzzxNUXcuObo3p4H-16" value="Vincentius Verrel&lt;br&gt;CFO" style="rounded=0;whiteSpace=wrap;html=1;fillColor=none;strokeColor=none;" vertex="1" parent="1">
          <mxGeometry x="620" y="482" width="170" height="60" as="geometry" />
        </mxCell>
        <mxCell id="SEZTkzzxNUXcuObo3p4H-17" value="Muhamad Fikri Nurohman&lt;br&gt;CTO" style="rounded=0;whiteSpace=wrap;html=1;fillColor=default;strokeColor=none;" vertex="1" parent="1">
          <mxGeometry x="25" y="480" width="170" height="60" as="geometry" />
        </mxCell>
        <mxCell id="SEZTkzzxNUXcuObo3p4H-21" style="edgeStyle=orthogonalEdgeStyle;rounded=0;orthogonalLoop=1;jettySize=auto;html=1;exitX=0.5;exitY=0;exitDx=0;exitDy=0;endArrow=none;endFill=0;startArrow=classic;startFill=1;" edge="1" parent="1" source="SEZTkzzxNUXcuObo3p4H-18">
          <mxGeometry relative="1" as="geometry">
            <mxPoint x="310.1379310344828" y="439.9999999999999" as="targetPoint" />
          </mxGeometry>
        </mxCell>
        <UserObject label="" name="Evan Valet" position="HR Director" location="Office 4" email="me@example.com" placeholders="1" link="https://www.draw.io" id="SEZTkzzxNUXcuObo3p4H-18">
          <mxCell style="label;image=https://cdn3.iconfinder.com/data/icons/user-avatars-1/512/users-9-2-128.png;whiteSpace=wrap;html=1;rounded=0;glass=0;treeFolding=1;treeMoving=1;" vertex="1" parent="1">
            <mxGeometry x="220" y="470" width="180" height="80" as="geometry" />
          </mxCell>
        </UserObject>
        <mxCell id="SEZTkzzxNUXcuObo3p4H-19" value="" style="whiteSpace=wrap;html=1;aspect=fixed;strokeColor=none;" vertex="1" parent="1">
          <mxGeometry x="230" y="490" width="50" height="50" as="geometry" />
        </mxCell>
        <mxCell id="SEZTkzzxNUXcuObo3p4H-20" value="Dhiya Risalah Ghaida&lt;br&gt;COO" style="rounded=0;whiteSpace=wrap;html=1;fillColor=none;strokeColor=none;" vertex="1" parent="1">
          <mxGeometry x="225" y="482" width="170" height="60" as="geometry" />
        </mxCell>
      </root>
    </mxGraphModel>
  </diagram>
</mxfile>
